<svg width="30" height="30" viewBox="0 0 30 30" fill="none" xmlns="http://www.w3.org/2000/svg">
<circle cx="15" cy="15" r="15" fill="#6E24FF"/>
<path d="M11.62 22V9.148H15.724C17.38 9.148 18.586 9.484 19.342 10.156C20.11 10.828 20.494 11.752 20.494 12.928C20.494 13.624 20.338 14.278 20.026 14.89C19.714 15.502 19.192 15.994 18.46 16.366C17.74 16.738 16.756 16.924 15.508 16.924H14.338V22H11.62ZM10.18 20.074V18.328H17.11V20.074H10.18ZM10.18 16.924V14.692H15.454V16.924H10.18ZM15.238 14.692C15.754 14.692 16.198 14.638 16.57 14.53C16.942 14.41 17.23 14.224 17.434 13.972C17.638 13.72 17.74 13.402 17.74 13.018C17.74 12.466 17.566 12.058 17.218 11.794C16.87 11.518 16.324 11.38 15.58 11.38H14.338V14.692H15.238Z" fill="#D5D5D5"/>
</svg>
